<svg id="Layer_1" data-name="Layer 1" xmlns="http://www.w3.org/2000/svg" viewBox="0 0 457.72 270.6"><defs><style>.cls-1{fill:#fff;}.cls-11,.cls-2{fill:#0a0a0a;}.cls-3{fill:#38a8e0;}.cls-4,.cls-9{fill:#666;}.cls-5{fill:#27aae1;opacity:0.2;}.cls-6{fill:none;}.cls-7{fill:#fff200;}.cls-8{fill:#e6e7e8;}.cls-9{opacity:0.3;}.cls-10{fill:#c49a6c;opacity:0.6;}.cls-11{stroke:#231f20;stroke-miterlimit:10;stroke-width:2px;}</style></defs><title>my-vector-art</title><rect class="cls-1" x="149.39" y="71.12" width="27.17" height="29.75"/><rect class="cls-1" x="208.2" y="72.68" width="98.67" height="56.39"/><polygon class="cls-2" points="208.2 72.68 306.87 72.68 306.87 129.07 311.65 129.07 311.65 67.89 203.42 67.89 203.42 129.07 208.2 129.07 208.2 72.68"/><polygon class="cls-2" points="306.87 129.07 208.2 129.07 203.42 129.07 203.42 133.85 208.2 133.85 306.87 133.85 311.65 133.85 311.65 129.07 306.87 129.07"/><path class="cls-1" d="M418.48,109.75a21,21,0,1,0,21,21A21,21,0,0,0,418.48,109.75Zm0,24.9a3.94,3.94,0,0,1-3.66-2.52h-9.71v-2.84h9.71a4,4,0,0,1,2.24-2.24V112.89h2.84v14.16a3.93,3.93,0,0,1-1.42,7.6Z" transform="translate(-160.94 -106.91)"/><path class="cls-2" d="M418.48,106.91a23.8,23.8,0,1,0,23.8,23.8A23.82,23.82,0,0,0,418.48,106.91Zm0,44.76a21,21,0,1,1,21-21A21,21,0,0,1,418.48,151.67Z" transform="translate(-160.94 -106.91)"/><path class="cls-2" d="M419.9,127.05V112.89h-2.84v14.16a4,4,0,0,0-2.24,2.24h-9.71v2.84h9.71a3.93,3.93,0,1,0,5.08-5.08Z" transform="translate(-160.94 -106.91)"/><path class="cls-1" d="M526.16,216.54v5.25h4l-3.22-5.73C526.68,216.23,526.43,216.39,526.16,216.54Z" transform="translate(-160.94 -106.91)"/><path class="cls-1" d="M528,209.33a5.72,5.72,0,1,0-5.72,5.71A5.73,5.73,0,0,0,528,209.33Z" transform="translate(-160.94 -106.91)"/><polygon class="cls-1" points="366.04 72.48 366.04 76.14 370 76.14 366.04 72.48"/><path class="cls-1" d="M515.26,221.79h4v-4.86a9.18,9.18,0,0,1-1-.48Z" transform="translate(-160.94 -106.91)"/><path class="cls-1" d="M532.87,208.3V185.52h-8.36v-7.75H488V208.3h26.13a8.18,8.18,0,0,1,16.23,0Zm-19.1-10.81h-22.2V195h22.2Zm0-6h-22.2V189h22.2Zm0-6h-22.2V183h22.2Z" transform="translate(-160.94 -106.91)"/><path class="cls-2" d="M535.34,210.77v-27l-.39-.36-8.75-8.08H485.56v35.47h28.67a8.15,8.15,0,0,0,2.06,4.12L511,224.26h10.68v-6.78a5.25,5.25,0,0,0,.56,0,8.22,8.22,0,0,0,1.41-.13v6.88h10.68l-5.6-10a8,8,0,0,0,1.56-3.52ZM527,179.39l4,3.66h-4Zm-7.74,42.4h-4l3-5.34a9.18,9.18,0,0,0,1,.48Zm3-6.75a5.72,5.72,0,1,1,5.72-5.71A5.71,5.71,0,0,1,522.28,215Zm7.87,6.75h-4v-5.25c.27-.15.52-.31.77-.48Zm-7.87-20.65a8.2,8.2,0,0,0-8.12,7.16H488V177.77h36.48v7.75h8.36V208.3h-2.48A8.17,8.17,0,0,0,522.28,201.14Z" transform="translate(-160.94 -106.91)"/><rect class="cls-2" x="330.63" y="88.1" width="22.2" height="2.47"/><rect class="cls-2" x="330.63" y="76.07" width="22.2" height="2.47"/><rect class="cls-2" x="330.63" y="82.09" width="22.2" height="2.47"/><rect class="cls-1" x="207.5" y="165.06" width="98.67" height="56.39"/><path class="cls-1" d="M467.7,338.11l-.59-.69v-4.27H368.44v4.27l-9.17,10.47h117Zm-19.13,6.28H387V339.6h61.58Z" transform="translate(-160.94 -106.91)"/><path class="cls-2" d="M471.89,335.62V267.19H363.66v68.43l-14.94,17.06H486.83ZM368.44,272h98.67v56.4H368.44Zm0,65.45v-4.27h98.67v4.27l.59.69,8.58,9.78h-117Z" transform="translate(-160.94 -106.91)"/><rect class="cls-2" x="226.05" y="232.69" width="61.58" height="4.79"/><path class="cls-3" d="M435,299.06l-.18-.11c-1.23-1.7-7.4-9.59-16.29-9.63s-15.17,8.07-16.33,9.68l-.48.7.48.73c1.13,1.61,7.22,9.64,16.33,9.68s15.2-8.07,16.34-9.69l.47-.72-.37-.54Zm-2.48.66c-.15.2-.33.44-.55.7-1.83,2.22-6.8,7.38-13.45,7.38-4.46,0-8.14-2.36-10.45-4.34a25.34,25.34,0,0,1-3-3c-.19-.23-.38-.47-.55-.7.15-.2.34-.44.57-.71,1.86-2.22,6.89-7.39,13.43-7.39,4.38,0,8.07,2.37,10.39,4.35a27.14,27.14,0,0,1,3,3C432.13,299.28,432.32,299.52,432.47,299.72Z" transform="translate(-160.94 -106.91)"/><path class="cls-3" d="M418.33,292.94h0c-4.21,0-7.65,3-7.66,6.78s3.45,6.76,7.66,6.77,7.65-3,7.65-6.77S422.54,292.94,418.33,292.94Zm.15,9.65a2.91,2.91,0,1,1,3.33-2.88A3.15,3.15,0,0,1,418.48,302.59Z" transform="translate(-160.94 -106.91)"/><path class="cls-2" d="M389.83,290.35a19.36,19.36,0,0,0,.27,2.83v.11a20.33,20.33,0,0,1,.28,2.91c0,1.15-.31,2.34-2.59,2.34h-.25v2.28h.25c1.77,0,2.59.74,2.59,2.34a18.84,18.84,0,0,1-.28,2.8,21.29,21.29,0,0,0-.28,2.91c0,3.3,1.84,5,5.32,5h1v-2.42h-.88c-1.74,0-2.52-.86-2.52-2.8a15,15,0,0,1,.25-2.48,17,17,0,0,0,.24-2.69c0-2.35-1-3.4-2.09-3.86,1.42-.61,2.12-1.89,2.09-3.81a18,18,0,0,0-.24-2.71,14.37,14.37,0,0,1-.25-2.44c0-1.93.76-2.76,2.52-2.76h.88v-2.43h-1C391.72,285.51,389.83,287.23,389.83,290.35Z" transform="translate(-160.94 -106.91)"/><path class="cls-2" d="M449.15,298.54c-2.27,0-2.58-1.19-2.58-2.34a20.61,20.61,0,0,1,.28-2.91v-.08a19.76,19.76,0,0,0,.27-2.86c0-3.07-2-4.84-5.36-4.84h-.95v2.43h.87c1.77,0,2.52.86,2.52,2.76a14.54,14.54,0,0,1-.17,1.92l-.08.6a15.94,15.94,0,0,0-.27,2.63c0,1.92.7,3.2,2.1,3.81-1.06.46-2.1,1.5-2.1,3.85a16.15,16.15,0,0,0,.28,2.69c0,.21,0,.42.08.62a15.07,15.07,0,0,1,.16,1.87c0,1.9-.78,2.77-2.55,2.8h-.84v2.42h1c3.44,0,5.33-1.79,5.33-5a19.74,19.74,0,0,0-.29-2.93,20,20,0,0,1-.27-2.78c0-1.6.82-2.34,2.58-2.34h.25v-2.28Z" transform="translate(-160.94 -106.91)"/><polygon class="cls-4" points="66.1 187.11 66.1 187.11 66.1 187.11 66.1 187.11"/><path class="cls-1" d="M207,292.84a21.24,21.24,0,1,0,21.23,21.23A21.26,21.26,0,0,0,207,292.84Z" transform="translate(-160.94 -106.91)"/><path class="cls-2" d="M207,289.93a24.15,24.15,0,1,0,24.14,24.14A24.14,24.14,0,0,0,207,289.93Zm0,45.38a21.24,21.24,0,1,1,21.23-21.24A21.27,21.27,0,0,1,207,335.31Z" transform="translate(-160.94 -106.91)"/><path class="cls-2" d="M229.1,336.19a31.28,31.28,0,0,0,0-44.23L227,294a28.36,28.36,0,1,1-40.11,40.11l-2.06,2.07a31.19,31.19,0,0,0,20.75,9.12v4.45h-9.11v2.91h21.17v-2.91h-9.15v-4.46A31.13,31.13,0,0,0,229.1,336.19Z" transform="translate(-160.94 -106.91)"/><path class="cls-3" d="M192.61,312.12l6.88,2.9-1.62,1.62h-2.46l-.4.13a3.71,3.71,0,0,0-1.6,6.32l5.07,5.07a4,4,0,0,0,2.77,1.2,3.74,3.74,0,0,0,3.57-2.81l.12-.4v-2.44l1.63-1.62,2.91,6.87.17.42.3.34a3.74,3.74,0,0,0,2.86,1.33,3.79,3.79,0,0,0,2.66-1.1l1.59-1.59a4.23,4.23,0,0,0,.9-4.46l-2.48-10.72,2.36-2.37a5.84,5.84,0,0,0,1.76-4.09,4.66,4.66,0,0,0-4.74-4.74,5.83,5.83,0,0,0-4.09,1.76l-2.34,2.33-10.76-2.45a4.11,4.11,0,0,0-1.52-.29h0a4.14,4.14,0,0,0-2.94,1.2l-1.57,1.57a3.75,3.75,0,0,0,.21,5.53l.34.3Zm1.09-3.95,1.58-1.58a1.24,1.24,0,0,1,.87-.33,1.17,1.17,0,0,1,.59.14l12.62,2.88,3.46-3.48a3,3,0,0,1,2-.9,1.83,1.83,0,0,1,1.32.52,2.42,2.42,0,0,1-.39,3.34l-3.51,3.51,2.9,12.58a1.27,1.27,0,0,1-.18,1.46l-1.58,1.58a.87.87,0,0,1-.61.26.84.84,0,0,1-.65-.32L207.56,317,202,322.51v3.23a.87.87,0,0,1-.78.72,1,1,0,0,1-.71-.35l-5.06-5.06a.82.82,0,0,1,.37-1.49l3.23,0,5.53-5.52-10.87-4.59A.85.85,0,0,1,193.7,308.17Z" transform="translate(-160.94 -106.91)"/><rect class="cls-5" x="158.41" y="208.94" width="20.6" height="26.37"/><path class="cls-1" d="M319.35,350.05H340v-5.19h-20.6Zm10.3-4.34a2,2,0,1,1-2,2A2,2,0,0,1,329.65,345.71Z" transform="translate(-160.94 -106.91)"/><rect class="cls-6" x="158.41" y="208.94" width="20.6" height="26.37"/><rect class="cls-1" x="158.41" y="237.95" width="20.6" height="5.18"/><path class="cls-2" d="M316.72,313.22v39.46h25.86V313.22ZM340,350.05h-20.6v-5.19H340Zm0-7.82h-20.6V315.85H340Z" transform="translate(-160.94 -106.91)"/><path class="cls-2" d="M329.65,349.73a2,2,0,1,0-2-2A2,2,0,0,0,329.65,349.73Z" transform="translate(-160.94 -106.91)"/><rect class="cls-2" x="163.58" y="67.64" width="2.64" height="6.96"/><polygon class="cls-3" points="166.73 84.77 166.73 95.14 169.37 95.14 169.37 78.4 163.47 84.3 165.34 86.17 166.73 84.77"/><rect class="cls-2" x="167.69" y="67.64" width="2.64" height="6.96"/><rect class="cls-2" x="159.47" y="67.64" width="2.64" height="6.96"/><rect class="cls-2" x="171.8" y="67.64" width="2.64" height="6.96"/><polygon class="cls-2" points="175.18 70.8 175.18 99.39 150.5 99.39 150.5 70.8 147.87 70.8 147.87 102.03 177.82 102.03 177.82 70.8 175.18 70.8"/><rect class="cls-2" x="151.25" y="67.64" width="2.64" height="6.96"/><rect class="cls-2" x="155.36" y="67.64" width="2.64" height="6.96"/><polygon class="cls-3" points="158.21 84.77 158.21 95.14 160.85 95.14 160.85 78.4 154.95 84.3 156.81 86.17 158.21 84.77"/><path class="cls-3" d="M427.59,206.65a2,2,0,0,0,.23-.93,2,2,0,0,0-1-1.75,1.9,1.9,0,0,0-1-.25,2,2,0,0,0-1.7.94,13.3,13.3,0,0,0-4.71-.85,17.76,17.76,0,0,0-10.59,3.86l.8,1.79a2.84,2.84,0,0,1,.58-.05,2.5,2.5,0,0,1,1.27.32,2.79,2.79,0,0,1,1.26,1.62l.29.9.91-.23a3,3,0,0,1,.78-.1,2.49,2.49,0,0,1,1.26.32,2.73,2.73,0,0,1,1.25,1.63l.29.89.91-.23a2.4,2.4,0,0,1,.6-.07,2.76,2.76,0,0,1,.81.14l-6.64,12.08a39.84,39.84,0,0,0-7.61-.77,38.28,38.28,0,0,0-5.25.37l-3.57-24.75a3.15,3.15,0,0,1,1.69.74l.79.63.63-.78a4.69,4.69,0,0,1,3-1.79,3.86,3.86,0,0,1,.58,0,4.84,4.84,0,0,1,2.78.94l.77.54.6-.73a4.63,4.63,0,0,1,3-1.78,3.69,3.69,0,0,1,.58,0,5,5,0,0,1,3.27,1.32l1.54-1.26c-4.55-7.92-12-13.08-20-13.1v0c0-.11,0-.22,0-.34a2.5,2.5,0,0,0-2.47-2.15l-.36,0a2.5,2.5,0,0,0-2.15,2.48c0,.11,0,.23,0,.35l.06.3c-7.63,2.06-13.37,8.76-15.75,17.33l1.72,1a4.6,4.6,0,0,1,2.77-1.53,3.86,3.86,0,0,1,.58,0,4.84,4.84,0,0,1,2.78.94l.77.54.59-.74a4.65,4.65,0,0,1,3-1.77,3.9,3.9,0,0,1,.58-.05,4.9,4.9,0,0,1,2.79.94l.77.55.59-.74a4.44,4.44,0,0,1,2.56-1.54l3.61,24.95A44,44,0,0,0,387.62,230a1,1,0,0,0,.47,1.91h35a1,1,0,0,0,.47-1.91,42.42,42.42,0,0,0-8.3-2.91l6.24-11.36a2.43,2.43,0,0,1,.22.54l.24,1,1-.24a3.11,3.11,0,0,1,.79-.1,2.55,2.55,0,0,1,1.25.31,2.76,2.76,0,0,1,1.25,1.63l.29.89.92-.22a3.53,3.53,0,0,1,.78-.09,2.45,2.45,0,0,1,1.26.31,2.85,2.85,0,0,1,1.35,2l2-.08A21.85,21.85,0,0,0,433,219C433,214.07,431.14,209.49,427.59,206.65Zm-34.22-21h.07a.48.48,0,0,1,.47.41v.06a.5.5,0,0,1-.18.35l-.23.21-.28-.15a.47.47,0,0,1-.27-.33v-.07A.5.5,0,0,1,393.37,185.68Zm-2.15,15.58a6.69,6.69,0,0,0-3.19-.84,6.33,6.33,0,0,0-.86.06,6.53,6.53,0,0,0-3.66,1.85,6.67,6.67,0,0,0-3.18-.83,6.33,6.33,0,0,0-.86.06,6.13,6.13,0,0,0-1.34.34c2.8-7.15,8.16-12.26,14.79-13.45l.65-.12.93-.08c.46,0,.91-.05,1.37-.05,6.16,0,12.09,3.4,16.37,9.09a6.59,6.59,0,0,0-1.09-.09,5.23,5.23,0,0,0-.87.06,6.51,6.51,0,0,0-3.66,1.84,6.76,6.76,0,0,0-3.18-.83,6.32,6.32,0,0,0-4.5,1.88,5.45,5.45,0,0,0-2.75-.68,10.21,10.21,0,0,0-1.2.08A6.91,6.91,0,0,0,391.22,201.26Zm26.54,28.67H393.41a43.53,43.53,0,0,1,5.23-1.33v.1l2-.28,0-.14a35.86,35.86,0,0,1,5-.35,40.35,40.35,0,0,1,12.06,2A.45.45,0,0,1,417.76,229.93ZM430.46,218a4.58,4.58,0,0,0-2.24-.57h0l-.4,0a4.56,4.56,0,0,0-1.86-2,4.45,4.45,0,0,0-2.23-.58l-.38,0a4.49,4.49,0,0,0-1.88-1.83,5,5,0,0,0-2.43-.67h-.21a4.49,4.49,0,0,0-4.1-2.55l-.4,0a4.54,4.54,0,0,0-1.86-1.95,1.71,1.71,0,0,0-.23-.13,14.86,14.86,0,0,1,7.19-2,11.12,11.12,0,0,1,5.07,1.19l.37.19.51.32c3.42,2.18,5.39,6.15,5.58,10.8Z" transform="translate(-160.94 -106.91)"/><path class="cls-7" d="M451.88,190.94a7.39,7.39,0,1,0,7.39,7.39A7.4,7.4,0,0,0,451.88,190.94Zm5.6,7.39a5.61,5.61,0,1,1-5.6-5.61A5.61,5.61,0,0,1,457.48,198.33Z" transform="translate(-160.94 -106.91)"/><polygon class="cls-7" points="299.8 94.35 304.85 91.43 299.8 88.52 298.91 90.06 301.28 91.43 298.91 92.8 299.8 94.35"/><polygon class="cls-7" points="290.96 81.06 292.33 83.44 293.87 82.55 290.96 77.5 288.04 82.55 289.59 83.44 290.96 81.06"/><polygon class="cls-7" points="298.74 83.63 297.78 87.23 299.5 87.69 301.26 81.11 294.69 82.88 295.15 84.6 298.74 83.63"/><polygon class="cls-7" points="283.13 99.19 284.09 95.59 282.37 95.13 280.61 101.71 287.18 99.95 286.73 98.22 283.13 99.19"/><polygon class="cls-7" points="290.91 101.76 289.55 99.39 288 100.28 290.91 105.32 293.83 100.28 292.29 99.39 290.91 101.76"/><polygon class="cls-7" points="297.75 95.62 298.71 99.22 295.12 98.26 294.65 99.98 301.24 101.74 299.47 95.16 297.75 95.62"/><polygon class="cls-7" points="284.12 87.2 283.16 83.6 286.76 84.57 287.13 83.17 287.14 82.83 280.64 81.08 282.4 87.66 284.12 87.2"/><polygon class="cls-7" points="282.96 92.76 280.59 91.39 282.96 90.02 282.07 88.48 277.02 91.39 282.07 94.3 282.96 92.76"/><path class="cls-3" d="M510.45,299.71a4.1,4.1,0,1,0-4.1-4.09A4.1,4.1,0,0,0,510.45,299.71Zm0-6a1.91,1.91,0,1,1-1.9,1.91A1.91,1.91,0,0,1,510.45,293.71Z" transform="translate(-160.94 -106.91)"/><path class="cls-3" d="M517.64,305.46a6.07,6.07,0,0,0-5.95-.08v-1.3a4.15,4.15,0,0,0,1.4.23,4.36,4.36,0,0,0,4.36-4.35,3.24,3.24,0,0,0,0-.44,4.35,4.35,0,0,0,0-7.81,3.17,3.17,0,0,0,0-.43,4.37,4.37,0,0,0-6.89-3.56,4.33,4.33,0,0,0-2.6-.87h0a4.37,4.37,0,0,0-4.36,4.36,3.24,3.24,0,0,0,0,.44,4.34,4.34,0,0,0-2.56,4,4.4,4.4,0,0,0,2.62,4c0,.14,0,.27,0,.41a4.37,4.37,0,0,0,5.85,4.1v13.67h2.19v-7.25a6.22,6.22,0,0,0,5.95-.09,2.81,2.81,0,0,0,0-5Zm-12.52-7.7a2.17,2.17,0,0,1,0-4.29l1.34-.21-.49-1.26a2.21,2.21,0,0,1-.15-.79A2.18,2.18,0,0,1,508,289a2.15,2.15,0,0,1,1.72.85l.85,1.11.88-1.08a2.14,2.14,0,0,1,1.69-.81,2.18,2.18,0,0,1,2.17,2.17,2,2,0,0,1-.14.75l-.45,1.2,1.26.26a2.17,2.17,0,0,1,0,4.25l-1.26.26.45,1.21a1.91,1.91,0,0,1,.14.74,2.17,2.17,0,0,1-3.84,1.39l-.87-1-.83,1.06a2.18,2.18,0,0,1-3.88-1.34,2.58,2.58,0,0,1,.15-.79l.49-1.29Zm11.34,10.85a4.07,4.07,0,0,1-3.72,0c-.33-.21-.52-.45-.52-.65s.19-.45.52-.66a3.56,3.56,0,0,1,1.86-.47,3.69,3.69,0,0,1,1.86.47,1,1,0,0,1,.51.66C517,308.16,516.78,308.4,516.46,308.61Z" transform="translate(-160.94 -106.91)"/><path class="cls-3" d="M538,311.16h0a6.25,6.25,0,0,0-6-.08v-.73a8.54,8.54,0,0,0,7-8.69,9.19,9.19,0,0,0-2.09-5.85l-1-1.18-2.53,4.09-2.58-4.17-2.57,4.17-2.54-4.1-1,1.19a9.24,9.24,0,0,0-2.09,5.85,8.55,8.55,0,0,0,7.14,8.71v7.42h2.19v-1.55a6.07,6.07,0,0,0,6-.08,2.81,2.81,0,0,0,0-5Zm-7.61-2.93a6.34,6.34,0,0,1-5.48-6.57,7.06,7.06,0,0,1,.72-3.11l2.69,4.33,2.57-4.16,2.58,4.16,2.68-4.33a6.87,6.87,0,0,1,.72,3.11,6.32,6.32,0,0,1-5.43,6.56Zm6.43,6.08a3.51,3.51,0,0,1-1.84.48h0a3.79,3.79,0,0,1-1.86-.48c-.32-.21-.51-.45-.51-.66s.19-.43.51-.64a3.55,3.55,0,0,1,1.85-.48h0a3.53,3.53,0,0,1,1.85.48c.32.21.52.45.51.66S537.14,314.1,536.82,314.31Z" transform="translate(-160.94 -106.91)"/><path class="cls-2" d="M541.63,323.61l-.09-.13a10,10,0,0,0-7.28-3.62H505.43a10,10,0,0,0-7.25,3.62l-.14.19c-1.81,2.56-4.85,7.61-4.9,12.85s3.14,10.34,4.47,12.26l.1.19a9.68,9.68,0,0,0,7.24,3.71h29.83A9.68,9.68,0,0,0,542,349l.11-.16c1.33-1.95,4.42-7.07,4.46-12.31S543.53,326.3,541.63,323.61Zm-1,19.68h0a24.93,24.93,0,0,1-1.89,3.25l-.1.15a6.15,6.15,0,0,1-3.87,1.93H504.92a5.76,5.76,0,0,1-3.92-2,25,25,0,0,1-1.92-3.3,16.71,16.71,0,0,1-1.87-6.78,16.52,16.52,0,0,1,2.08-7.09,28.44,28.44,0,0,1,2.07-3.42l.11-.15a6.13,6.13,0,0,1,4-1.93h28.84a6.18,6.18,0,0,1,4,2s.25.34.65.95c1.66,2.49,3.58,6.5,3.56,9.63A16.66,16.66,0,0,1,540.63,343.29Z" transform="translate(-160.94 -106.91)"/><rect class="cls-2" y="251.09" width="435.59" height="5.74"/><polygon class="cls-1" points="129.12 138.85 119.03 138.85 119.03 155.22 130.82 155.22 129.12 138.85"/><polygon class="cls-1" points="115.44 138.85 104.16 138.85 102.45 155.22 115.44 155.22 115.44 138.85"/><polygon class="cls-1" points="131.19 158.83 119.03 158.83 119.03 177.01 133.1 177.01 131.19 158.83"/><polygon class="cls-1" points="148.1 155.22 144.54 138.85 132.74 138.85 134.44 155.22 148.1 155.22"/><polygon class="cls-1" points="136.72 177.01 152.83 177.01 148.88 158.83 134.81 158.83 136.72 177.01"/><polygon class="cls-1" points="80.44 177.01 96.55 177.01 98.45 158.83 84.39 158.83 80.44 177.01"/><polygon class="cls-1" points="115.44 158.83 102.07 158.83 100.17 177.01 115.44 177.01 115.44 158.83"/><path class="cls-6" d="M296,325.93a6.18,6.18,0,0,0-4-2H263.17a6.13,6.13,0,0,0-4,1.93l-.11.15a28.44,28.44,0,0,0-2.07,3.42,13.14,13.14,0,0,0-.2,13.87,24.38,24.38,0,0,0,1.91,3.3,5.79,5.79,0,0,0,3.92,2h29.85a6.15,6.15,0,0,0,3.87-1.93l.1-.15a24.93,24.93,0,0,0,1.89-3.25h0a16.66,16.66,0,0,0,1.88-6.78c0-3.13-1.9-7.14-3.56-9.63C296.28,326.27,296,325.94,296,325.93Z" transform="translate(-160.94 -106.91)"/><polygon class="cls-1" points="88.73 138.85 85.17 155.22 98.83 155.22 100.53 138.85 88.73 138.85"/><path class="cls-2" d="M299.26,323.48a10,10,0,0,0-7.27-3.62H280V287.53h38.28l-.48-2.19-9.39-43.18h-61.6l-9.87,45.37h39.47v32.33H263.16a10,10,0,0,0-7.26,3.62l-.14.19c-1.81,2.56-4.85,7.61-4.9,12.85s3.14,10.34,4.47,12.26l.1.19a9.68,9.68,0,0,0,7.24,3.71H292.5a9.68,9.68,0,0,0,7.22-3.71l.11-.16c1.33-1.95,4.42-7.07,4.47-12.31s-3.05-10.2-4.95-12.89Zm14.52-39.56H297.66l-1.9-18.18h14.06Zm-8.29-38.16L309,262.14H295.38l-1.7-16.38Zm-25.52,0h10.09l1.7,16.38H280Zm0,20h12.17l1.91,18.18H280Zm-14.86-20h11.27v16.38h-13Zm-7.62,38.16H241.38l4-18.18H259.4Zm-11.37-21.78,3.55-16.38h11.8l-1.7,16.38Zm15,21.78L263,265.74h13.36v18.18Zm37.24,59.37h0a24.93,24.93,0,0,1-1.89,3.25l-.1.15a6.15,6.15,0,0,1-3.87,1.93H262.64a5.79,5.79,0,0,1-3.92-2,24.38,24.38,0,0,1-1.91-3.3,13.14,13.14,0,0,1,.2-13.87,28.44,28.44,0,0,1,2.07-3.42l.11-.15a6.13,6.13,0,0,1,4-1.93H292a6.18,6.18,0,0,1,4,2s.26.34.65.95c1.66,2.49,3.58,6.5,3.56,9.63A16.66,16.66,0,0,1,298.35,343.29Z" transform="translate(-160.94 -106.91)"/><path class="cls-8" d="M582.35,334l-1.11-.16v-1.14a1.82,1.82,0,0,0-1.88-1.87H561.3a1.83,1.83,0,0,0-1.9,1.87c0,.07,0,.13,0,.19l1.43,15a2.66,2.66,0,0,0,2.51,2.31h14a2.65,2.65,0,0,0,2.51-2.31l.65-6.77,1.19,0h.17a3.6,3.6,0,0,0,.52-7.15Z" transform="translate(-160.94 -106.91)"/><path class="cls-2" d="M583.66,331.69a4.38,4.38,0,0,0-4.3-3.42H561.3a4.37,4.37,0,0,0-4.42,4.4,3.7,3.7,0,0,0,0,.46l1.43,14.95a5.17,5.17,0,0,0,5,4.6h13.9a5.19,5.19,0,0,0,5.06-4.6l.43-4.51a6.12,6.12,0,0,0,.89-11.88Zm-1.83,9.43h-.17l-1.19,0-.65,6.77a2.65,2.65,0,0,1-2.51,2.31h-14a2.66,2.66,0,0,1-2.51-2.31l-1.43-15c0-.06,0-.12,0-.19a1.83,1.83,0,0,1,1.9-1.87h18.06a1.82,1.82,0,0,1,1.88,1.87v1.14l1.11.16a3.6,3.6,0,0,1-.52,7.15Z" transform="translate(-160.94 -106.91)"/><path class="cls-9" d="M562.92,323.35a1.25,1.25,0,0,0,.81.3,1.29,1.29,0,0,0,1-.45,1.27,1.27,0,0,0-.15-1.78c-.92-.79-.92-1.18-.92-1.35a3.81,3.81,0,0,1,1-1.78l.17-.24a8.3,8.3,0,0,0,1.62-3.08l0-.15v-.07a4.75,4.75,0,0,0-1.09-2.82c-.16-.24-.33-.48-.48-.75a1.24,1.24,0,0,0-.78-.58,1.27,1.27,0,0,0-.95.14,1.22,1.22,0,0,0-.58.77,1.2,1.2,0,0,0,.14,1c.22.37.42.67.6.92a2.64,2.64,0,0,1,.6,1.22,7.89,7.89,0,0,1-1.32,2.2l-.09.13a5.5,5.5,0,0,0-1.34,3.15A4.31,4.31,0,0,0,562.92,323.35Z" transform="translate(-160.94 -106.91)"/><path class="cls-9" d="M568.94,325.53a1.2,1.2,0,0,0,.81.3,1.26,1.26,0,0,0,.82-2.23c-.92-.77-.92-1.18-.92-1.34a3.7,3.7,0,0,1,.94-1.77l.18-.24a8.4,8.4,0,0,0,1.62-3.1v-.21a4.72,4.72,0,0,0-1.08-2.83,8.6,8.6,0,0,1-.48-.74,1.26,1.26,0,0,0-2.31.33,1.2,1.2,0,0,0,.14,1c.22.37.42.66.59.92a2.66,2.66,0,0,1,.61,1.21,7.89,7.89,0,0,1-1.32,2.2l-.1.15a5.43,5.43,0,0,0-1.33,3.13A4.28,4.28,0,0,0,568.94,325.53Z" transform="translate(-160.94 -106.91)"/><path class="cls-9" d="M575,321.73h0a1.27,1.27,0,0,0,1.78-.16,1.27,1.27,0,0,0-.15-1.77c-.92-.79-.92-1.19-.92-1.35,0-.49.7-1.45.94-1.77l.18-.25a8.25,8.25,0,0,0,1.6-3l0-.25v-.05a4.78,4.78,0,0,0-1.08-2.83,8.6,8.6,0,0,1-.48-.74,1.27,1.27,0,1,0-2.18,1.29l.6.92a2.79,2.79,0,0,1,.61,1.22,8.12,8.12,0,0,1-1.32,2.2l-.1.13a5.52,5.52,0,0,0-1.33,3.14A4.25,4.25,0,0,0,575,321.73Z" transform="translate(-160.94 -106.91)"/><polygon class="cls-1" points="402.8 227.09 404.22 240.98 406.18 240.98 406.18 227.09 402.8 227.09"/><path class="cls-1" d="M329.65,318.63h7.73v7.87S335.93,320.31,329.65,318.63Z" transform="translate(-160.94 -106.91)"/><path class="cls-10" d="M539,326.88c-.4-.61-.64-.94-.65-.95a6.18,6.18,0,0,0-4-2H505.45a6.13,6.13,0,0,0-4,1.93l-.11.15a28.44,28.44,0,0,0-2.07,3.42,16.52,16.52,0,0,0-2.08,7.09,16.71,16.71,0,0,0,1.87,6.78,25,25,0,0,0,1.92,3.3,5.76,5.76,0,0,0,3.92,2h29.85a6.15,6.15,0,0,0,3.87-1.93l.1-.15a24.93,24.93,0,0,0,1.89-3.25h0a16.66,16.66,0,0,0,1.88-6.78C542.53,333.38,540.61,329.37,539,326.88Z" transform="translate(-160.94 -106.91)"/><polygon class="cls-1" points="371.05 219.32 373.18 219.32 375.93 229.76 373.49 239.39 370.82 239.39 371.05 219.32"/><path class="cls-10" d="M296.67,326.88c-.39-.61-.64-.94-.65-.95a6.23,6.23,0,0,0-4-2H263.17a6.13,6.13,0,0,0-4,1.93l-.11.15a28.44,28.44,0,0,0-2.07,3.42,13.14,13.14,0,0,0-.2,13.87,24.38,24.38,0,0,0,1.91,3.3,5.79,5.79,0,0,0,3.92,2h29.85a6.15,6.15,0,0,0,3.87-1.93l.1-.15a24.93,24.93,0,0,0,1.89-3.25h0a16.66,16.66,0,0,0,1.88-6.78C300.25,333.38,298.33,329.37,296.67,326.88Z" transform="translate(-160.94 -106.91)"/><polygon class="cls-1" points="128.78 219.33 130.9 219.33 133.65 229.76 131.21 239.39 128.54 239.39 128.78 219.33"/><line class="cls-11" x1="324.76" y1="264.59" x2="418.72" y2="264.59"/><line class="cls-11" x1="422.76" y1="264.59" x2="432.72" y2="264.59"/><line class="cls-11" x1="436.76" y1="264.59" x2="457.72" y2="264.59"/><line class="cls-11" x1="38.19" y1="265.22" x2="132.16" y2="265.22"/><line class="cls-11" x1="61.76" y1="269.6" x2="155.72" y2="269.6"/><line class="cls-11" x1="159.76" y1="269.6" x2="165.72" y2="269.6"/><line class="cls-11" x1="312.76" y1="140.46" x2="332.72" y2="140.46"/><line class="cls-11" x1="326.21" y1="145.04" x2="346.18" y2="145.04"/><line class="cls-11" x1="286.56" y1="38.68" x2="301.52" y2="38.68"/><line class="cls-11" x1="294.86" y1="34.46" x2="314.83" y2="34.46"/><line class="cls-11" x1="349.51" y1="145.04" x2="354.48" y2="145.04"/><line class="cls-11" x1="59.93" y1="131.46" x2="110.9" y2="131.46"/><line class="cls-11" x1="52.19" y1="131.46" x2="56.16" y2="131.46"/><line class="cls-11" x1="30.67" y1="127.25" x2="70.64" y2="127.25"/><line class="cls-11" x1="126.56" y1="100.03" x2="130.53" y2="100.03"/><line class="cls-11" x1="119.43" y1="95.42" x2="128.4" y2="95.42"/><line class="cls-11" x1="392.76" y1="182.3" x2="396.72" y2="182.3"/><line class="cls-11" x1="385.63" y1="177.69" x2="394.6" y2="177.69"/></svg>